<svg width="628" height="242" viewBox="0 0 628 242" fill="none" xmlns="http://www.w3.org/2000/svg">
<g clip-path="url(#clip0_200_2813)">
<rect width="628" height="242" rx="12" fill="#F64E60"/>
<path d="M119.472 123.5C72.1663 98.049 44.3989 98.1844 -7.5 123.5V301.5H634V123.5C616.503 113.46 607.304 114.18 591.676 123.5L548.522 149.5C518.887 167.628 501.313 167.374 468.023 149.5L405.782 112C373.884 96.1261 356.946 96.5327 328.603 112L274.66 144.5C230.364 171.549 204.23 173.657 154.327 144.5L119.472 123.5Z" fill="#F54759" stroke="#D13647" stroke-width="3"/>
<path d="M-7.5 129.5C44.3989 104.184 72.1663 104.049 119.472 129.5L154.327 150.5C204.23 179.657 230.364 177.549 274.66 150.5L328.603 118C356.946 102.533 373.884 102.126 405.782 118L468.023 155.5C501.313 173.374 518.887 173.628 548.522 155.5L591.676 129.5C607.304 120.18 616.503 119.46 634 129.5" stroke="#952B37" stroke-opacity="0.1" stroke-width="4"/>
<rect opacity="0.12" x="513" y="22" width="85" height="30" rx="6" fill="white"/>
<path d="M532.214 32.311H527.759V40H532.214V38.746H529.299V36.711H531.884V35.49H529.299V33.565H532.214V32.311ZM536.979 40H538.717L536.693 36.942L538.695 33.906H537.045L535.923 35.787L534.68 33.906H532.942L534.955 36.942L532.964 40H534.614L535.725 38.108L536.979 40ZM541.094 34.786V33.906H539.554V42.904H541.094V39.131C541.468 39.626 542.15 40.099 543.107 40.099C544.669 40.099 545.89 38.834 545.89 36.931C545.89 35.028 544.669 33.807 543.107 33.807C542.161 33.807 541.457 34.269 541.094 34.786ZM544.317 36.931C544.317 38.086 543.536 38.746 542.7 38.746C541.875 38.746 541.094 38.108 541.094 36.953C541.094 35.798 541.875 35.16 542.7 35.16C543.536 35.16 544.317 35.776 544.317 36.931ZM552.894 36.953C552.894 35.028 551.519 33.807 549.759 33.807C547.999 33.807 546.624 35.028 546.624 36.953C546.624 38.867 547.955 40.099 549.715 40.099C551.486 40.099 552.894 38.867 552.894 36.953ZM548.186 36.953C548.186 35.732 548.923 35.149 549.737 35.149C550.551 35.149 551.31 35.732 551.31 36.953C551.31 38.163 550.529 38.757 549.715 38.757C548.89 38.757 548.186 38.163 548.186 36.953ZM555.564 36.964C555.564 35.787 556.114 35.435 557.027 35.435H557.434V33.818C556.587 33.818 555.949 34.225 555.564 34.852V33.906H554.024V40H555.564V36.964ZM558.713 38.108C558.713 39.505 559.494 40 560.66 40H561.628V38.702H560.913C560.429 38.702 560.264 38.526 560.264 38.119V35.171H561.628V33.906H560.264V32.399H558.713V33.906H557.987V35.171H558.713V38.108Z" fill="white"/>
<path d="M576 35L579.5 38L582.5 35" stroke="white" stroke-linecap="round" stroke-linejoin="round"/>
<path d="M29.595 37.05C29.595 40.603 32.196 43.102 35.613 43.102C38.248 43.102 40.39 41.708 41.189 39.26H38.452C37.891 40.416 36.871 40.977 35.596 40.977C33.522 40.977 32.043 39.447 32.043 37.05C32.043 34.636 33.522 33.123 35.596 33.123C36.871 33.123 37.891 33.684 38.452 34.823H41.189C40.39 32.392 38.248 30.981 35.613 30.981C32.196 30.981 29.595 33.497 29.595 37.05ZM42.6098 38.257C42.6098 41.198 44.5138 43.153 46.8938 43.153C48.3898 43.153 49.4608 42.439 50.0218 41.623V43H52.4188V33.582H50.0218V34.925C49.4608 34.143 48.4238 33.429 46.9108 33.429C44.5138 33.429 42.6098 35.316 42.6098 38.257ZM50.0218 38.291C50.0218 40.076 48.8318 41.062 47.5228 41.062C46.2478 41.062 45.0408 40.042 45.0408 38.257C45.0408 36.472 46.2478 35.52 47.5228 35.52C48.8318 35.52 50.0218 36.506 50.0218 38.291ZM55.1173 40.076C55.1173 42.235 56.3243 43 58.1263 43H59.6223V40.994H58.5173C57.7693 40.994 57.5143 40.722 57.5143 40.093V35.537H59.6223V33.582H57.5143V31.253H55.1173V33.582H53.9953V35.537H55.1173V40.076ZM65.3801 35.384C66.6041 35.384 67.5901 36.166 67.6241 37.407H63.1531C63.3401 36.115 64.2411 35.384 65.3801 35.384ZM69.8511 40.042H67.2841C66.9781 40.671 66.4171 41.181 65.3971 41.181C64.2071 41.181 63.2551 40.399 63.1361 39.005H70.0211C70.0721 38.699 70.0891 38.393 70.0891 38.087C70.0891 35.282 68.1681 33.429 65.4481 33.429C62.6601 33.429 60.7221 35.316 60.7221 38.291C60.7221 41.249 62.7111 43.153 65.4481 43.153C67.7771 43.153 69.3411 41.776 69.8511 40.042ZM71.2143 38.257C71.2143 41.198 73.1183 43.153 75.5153 43.153C76.9943 43.153 78.0653 42.422 78.6263 41.606V43.068C78.6263 44.819 77.6063 45.567 76.2973 45.567C75.1073 45.567 74.2233 45.006 73.9853 44.156H71.6223C71.8603 46.315 73.7133 47.641 76.3653 47.641C79.4593 47.641 81.0233 45.618 81.0233 43.068V33.582H78.6263V34.925C78.0653 34.109 76.9943 33.429 75.5153 33.429C73.1183 33.429 71.2143 35.316 71.2143 38.257ZM78.6263 38.291C78.6263 40.076 77.4363 41.062 76.1273 41.062C74.8523 41.062 73.6453 40.042 73.6453 38.257C73.6453 36.472 74.8523 35.52 76.1273 35.52C77.4363 35.52 78.6263 36.506 78.6263 38.291ZM92.4428 38.291C92.4428 35.316 90.3178 33.429 87.5978 33.429C84.8778 33.429 82.7528 35.316 82.7528 38.291C82.7528 41.249 84.8098 43.153 87.5298 43.153C90.2668 43.153 92.4428 41.249 92.4428 38.291ZM85.1668 38.291C85.1668 36.404 86.3058 35.503 87.5638 35.503C88.8218 35.503 89.9948 36.404 89.9948 38.291C89.9948 40.161 88.7878 41.079 87.5298 41.079C86.2548 41.079 85.1668 40.161 85.1668 38.291ZM96.5686 38.308C96.5686 36.489 97.4186 35.945 98.8296 35.945H99.4586V33.446C98.1496 33.446 97.1636 34.075 96.5686 35.044V33.582H94.1886V43H96.5686V38.308ZM101.062 43H103.442V33.582H101.062V43ZM102.269 32.46C103.102 32.46 103.731 31.848 103.731 31.066C103.731 30.284 103.102 29.672 102.269 29.672C101.419 29.672 100.807 30.284 100.807 31.066C100.807 31.848 101.419 32.46 102.269 32.46ZM109.839 35.384C111.063 35.384 112.049 36.166 112.083 37.407H107.612C107.799 36.115 108.7 35.384 109.839 35.384ZM114.31 40.042H111.743C111.437 40.671 110.876 41.181 109.856 41.181C108.666 41.181 107.714 40.399 107.595 39.005H114.48C114.531 38.699 114.548 38.393 114.548 38.087C114.548 35.282 112.627 33.429 109.907 33.429C107.119 33.429 105.181 35.316 105.181 38.291C105.181 41.249 107.17 43.153 109.907 43.153C112.236 43.153 113.8 41.776 114.31 40.042ZM123.595 40.314C123.527 36.863 118.308 37.934 118.308 36.217C118.308 35.673 118.767 35.316 119.651 35.316C120.586 35.316 121.164 35.809 121.232 36.54H123.51C123.374 34.67 121.997 33.429 119.719 33.429C117.39 33.429 115.996 34.687 115.996 36.251C115.996 39.702 121.317 38.631 121.317 40.314C121.317 40.858 120.807 41.283 119.872 41.283C118.92 41.283 118.257 40.739 118.172 40.025H115.775C115.877 41.776 117.526 43.153 119.889 43.153C122.184 43.153 123.595 41.929 123.595 40.314Z" fill="white"/>
</g>
<defs>
<clipPath id="clip0_200_2813">
<rect width="628" height="242" rx="12" fill="white"/>
</clipPath>
</defs>
</svg>
